<svg width="496" height="60" viewBox="0 0 496 60" fill="none" xmlns="http://www.w3.org/2000/svg">
<path d="M462.231 1.2616C473.536 1.2616 481.986 3.5207 487.58 8.03891C493.193 12.5571 496 19.8039 496 29.7791V30.5713C496 40.4292 493.193 47.4706 487.58 51.6954C481.966 55.9202 473.516 58.0326 462.231 58.0326H428.755V1.2616H462.231ZM463.375 34.0626V25.2316C463.375 22.904 462.465 21.7402 460.646 21.7402H459.942V37.554H460.793C461.595 37.554 462.192 37.3682 462.583 36.9965C462.994 36.6054 463.228 36.2142 463.287 35.823C463.346 35.4122 463.375 34.8255 463.375 34.0626Z" fill="#1E1E1E"/>
<path d="M395.338 58.0326L394.986 53.045H389.587L389.147 58.0326H356.581L367.994 1.2616H417.401L428.344 58.0326H395.338ZM390.79 37.9061H393.842L392.932 26.3758L392.815 21.0654H391.612L391.729 26.3758L390.79 37.9061Z" fill="#1E1E1E"/>
<path d="M335.486 37.6127H356.288V58.0326H304.299V1.2616H356.141V21.6816H335.486V23.5299H355.613V35.6176H335.486V37.6127Z" fill="#1E1E1E"/>
<path d="M270.412 1.2616H301.776V58.0326H270.412V39.6957H267.537V58.0326H236.115V1.2616H267.537V19.2758H270.412V1.2616Z" fill="#1E1E1E"/>
<path d="M228.639 1.2616V26.5518H216.023V58.0326H184.836V26.6105H172.161V1.2616H228.639Z" fill="#1E1E1E"/>
<path d="M138.979 1.2616L169.99 1.2616V19.9506L166.822 32.1849H142.177L138.979 19.9506V1.2616ZM140.329 58.0326V35.6176L168.67 35.6176V58.0326L140.329 58.0326Z" fill="#1E1E1E"/>
<path d="M104.506 1.2616H135.869V58.0326H104.506V39.6957H101.63V58.0326H70.2083V1.2616H101.63V19.2758H104.506V1.2616Z" fill="#1E1E1E"/>
<path d="M67.4798 18.3076H35.999V18.0728C35.999 16.9188 35.3829 16.3418 34.1506 16.3418C33.5834 16.3418 33.114 16.469 32.7424 16.7232C32.3903 16.9775 32.2143 17.3296 32.2143 17.7795V17.8381C32.2143 18.4054 32.4588 18.7965 32.9477 19.0117C33.4563 19.2268 34.3951 19.354 35.7643 19.3931L47.0598 19.6865C54.4337 19.8821 59.8907 21.2317 63.431 23.7353C66.9712 26.2193 68.7414 30.5224 68.7414 36.6445V37.2312C68.7414 44.1552 65.8075 49.583 59.9396 53.5144C54.0718 57.4458 45.4755 59.4115 34.1506 59.4115C23.5299 59.4115 15.1976 57.7392 9.15378 54.3946C3.1295 51.0499 0.117356 46.3166 0.117356 40.1945V39.0503H32.3316V39.3436C32.3316 39.9109 32.4979 40.3901 32.8304 40.7813C33.1824 41.1529 33.6225 41.3387 34.1506 41.3387C34.7179 41.3387 35.1384 41.1822 35.4122 40.8693C35.686 40.5368 35.823 40.1456 35.823 39.6957V39.637C35.823 38.5222 35.1188 37.9647 33.7105 37.9647L24.5274 37.7887C15.3932 37.6322 9.01686 36.1848 5.39838 33.4465C1.79946 30.6886 0 26.366 0 20.4786V20.3026C0 13.3004 2.82633 8.16603 8.47898 4.89962C14.1316 1.63321 22.6204 0 33.9453 0C44.6833 0 52.957 1.53541 58.7661 4.60623C64.5752 7.65749 67.4798 11.9899 67.4798 17.6034V18.3076Z" fill="#1E1E1E"/>
</svg>
