<svg width="638" height="219" viewBox="0 0 638 219" fill="none" xmlns="http://www.w3.org/2000/svg">
<path fill-rule="evenodd" clip-rule="evenodd" d="M4.58595e-06 118.332C5.89553e-06 103.329 8.21901 90.2486 20.3935 83.3608V79.0522C20.3935 69.9683 26.4633 62.0164 35.0861 59.2C55.9103 52.3985 92.5419 38.4608 102.05 22.0027C121.009 30.675 134.607 42.3192 134.606 63.6514C134.606 70.2511 133.811 76.6564 132.713 82.3558C145.921 88.9192 155 102.564 155 118.332V154.817C155 163.684 147.823 170.872 138.97 170.872H114.375C108.984 170.872 103.632 169.964 98.5414 168.186L85.417 163.602C80.2904 161.812 74.7096 161.812 69.583 163.602L56.4586 168.186C51.3682 169.964 46.0156 170.872 40.6246 170.872H16.0299C7.17682 170.872 0 163.684 0 154.817L4.58595e-06 118.332ZM49.9838 118.332C40.0241 118.332 31.9502 126.419 31.9502 136.394C31.9502 146.37 40.0241 154.456 49.9838 154.456C59.9435 154.456 68.0175 146.37 68.0175 136.394C68.0175 126.419 59.9435 118.332 49.9838 118.332ZM90.0586 136.394C90.0586 126.419 98.1325 118.332 108.092 118.332C118.052 118.332 126.126 126.419 126.126 136.394C126.126 146.37 118.052 154.456 108.092 154.456C98.1325 154.456 90.0586 146.37 90.0586 136.394Z" fill="#FEFFF1"/>
<path d="M60.5943 190.423C56.0036 186.731 59.5862 180.545 65.474 180.545H66.0272C67.0039 180.545 67.9349 180.919 68.7246 181.495C71.3692 183.422 74.625 184.559 78.1459 184.559C81.6616 184.559 84.9203 183.426 87.57 181.495C88.3598 180.919 89.2908 180.545 90.2674 180.545H90.8178C96.7056 180.545 100.288 186.731 95.6975 190.423C90.892 194.288 84.7886 196.6 78.1459 196.6C71.5032 196.6 65.3998 194.288 60.5943 190.423Z" fill="#FEFFF1"/>
<path d="M582.707 115.167C601.143 115.167 614.923 119.283 624.046 127.515C633.2 135.747 637.777 148.951 637.777 167.126V168.569C637.777 186.53 633.2 199.359 624.046 207.057C614.891 214.754 601.111 218.603 582.707 218.603H528.114V115.167H582.707ZM584.573 174.93V158.84C584.573 154.599 583.089 152.479 580.123 152.479H578.975V181.291H580.362C581.67 181.291 582.643 180.953 583.281 180.276C583.951 179.563 584.333 178.85 584.429 178.137C584.525 177.389 584.573 176.32 584.573 174.93Z" fill="#FEFFF1"/>
<path d="M473.617 218.603L473.043 209.516H464.239L463.521 218.603H410.412L429.024 115.167H509.597L527.444 218.603H473.617ZM466.201 181.933H471.177L469.693 160.925L469.502 151.249H467.54L467.732 160.925L466.201 181.933Z" fill="#FEFFF1"/>
<path d="M376.01 181.398H409.933V218.603H325.149V115.167H409.693V152.372H376.01V155.74H408.832V177.763H376.01V181.398Z" fill="#FEFFF1"/>
<path d="M269.888 115.167H321.036V218.603H269.888V185.193H265.199V218.603H213.956V115.167H265.199V147.989H269.888V115.167Z" fill="#FEFFF1"/>
<path d="M636.256 2.35229V49.5014H612.736V108.192H554.593V49.6108H530.964V2.35229H636.256Z" fill="#FEFFF1"/>
<path d="M469.101 2.35229L526.916 2.35229V37.1945L521.008 60.0033L475.063 60.0033L469.101 37.1945V2.35229ZM471.617 108.192V66.4029H524.454V108.192H471.617Z" fill="#FEFFF1"/>
<path d="M404.832 2.35229H463.303V108.192H404.832V74.0058H399.471V108.192H340.891V2.35229H399.471V35.9365H404.832V2.35229Z" fill="#FEFFF1"/>
<path d="M335.804 34.1311H277.114V33.6936C277.114 31.5421 275.965 30.4664 273.668 30.4664C272.61 30.4664 271.735 30.7034 271.042 31.1775C270.386 31.6515 270.058 32.3079 270.058 33.1466V33.256C270.058 34.3135 270.513 35.0428 271.425 35.4439C272.373 35.845 274.124 36.082 276.676 36.1549L297.735 36.7019C311.482 37.0666 321.656 39.5826 328.256 44.2501C334.856 48.8812 338.156 56.9035 338.156 68.317V69.4109C338.156 82.3195 332.686 92.4385 321.747 99.768C310.807 107.097 294.781 110.762 273.668 110.762C253.867 110.762 238.333 107.644 227.066 101.409C215.834 95.1734 210.219 86.3489 210.219 74.9354V72.8022H270.276V73.3491C270.276 74.4066 270.586 75.3 271.206 76.0293C271.863 76.7221 272.683 77.0686 273.668 77.0686C274.725 77.0686 275.509 76.7768 276.02 76.1934C276.53 75.5735 276.785 74.8442 276.785 74.0055V73.8961C276.785 71.8176 275.473 70.7784 272.847 70.7784L255.727 70.4502C238.698 70.1585 226.81 67.4601 220.064 62.355C213.355 57.2134 210 49.1547 210 38.1787V37.8506C210 24.7961 215.269 15.2241 225.808 9.13446C236.346 3.04482 252.172 0 273.285 0C293.304 0 308.729 2.86249 319.559 8.58748C330.389 14.276 335.804 22.353 335.804 32.8184V34.1311Z" fill="#FEFFF1"/>
</svg>
