<svg width="1576" height="197" viewBox="0 0 1576 197" fill="none" xmlns="http://www.w3.org/2000/svg">
<path d="M1483.62 37.4434C1514.47 37.4434 1537.53 43.6094 1552.8 55.9414C1568.12 68.2734 1575.79 88.0527 1575.79 115.279V117.441C1575.79 144.348 1568.12 163.566 1552.8 175.098C1537.48 186.629 1514.42 192.395 1483.62 192.395H1392.25V37.4434H1483.62ZM1486.74 126.971V102.867C1486.74 96.5143 1484.26 93.3379 1479.29 93.3379H1477.37V136.5H1479.69C1481.88 136.5 1483.51 135.993 1484.58 134.979C1485.7 133.911 1486.34 132.843 1486.5 131.775C1486.66 130.654 1486.74 129.053 1486.74 126.971Z" fill="#F8331E"/>
<path d="M1301.04 192.395L1300.08 178.781H1285.34L1284.14 192.395H1195.25L1226.4 37.4434H1361.26L1391.12 192.395H1301.04ZM1288.62 137.461H1296.95L1294.47 105.99L1294.15 91.4961H1290.87L1291.19 105.99L1288.62 137.461Z" fill="#F8331E"/>
<path d="M1137.68 136.66H1194.45V192.395H1052.55V37.4434H1194.05V93.1777H1137.68V98.2227H1192.61V131.215H1137.68V136.66Z" fill="#F8331E"/>
<path d="M960.064 37.4434H1045.67V192.395H960.064V142.346H952.217V192.395H866.453V37.4434H952.217V86.6113H960.064V37.4434Z" fill="#F8331E"/>
<path d="M846.049 37.4434V106.471H811.615V192.395H726.492V106.631H691.898V37.4434H846.049Z" fill="#F8331E"/>
<path d="M601.33 37.4435H685.973V88.4532L677.324 121.846H610.059L601.33 88.4532V37.4435ZM605.014 192.395V131.215H682.369V192.395H605.014Z" fill="#F8331E"/>
<path d="M507.238 37.4434H592.842V192.395H507.238V142.346H499.391V192.395H413.627V37.4434H499.391V86.6113H507.238V37.4434Z" fill="#F8331E"/>
<path d="M406.18 83.9688H320.256V83.3281C320.256 80.1784 318.574 78.6035 315.211 78.6035C313.663 78.6035 312.382 78.9505 311.367 79.6445C310.406 80.3385 309.926 81.2995 309.926 82.5273V82.6875C309.926 84.2357 310.593 85.3034 311.928 85.8906C313.316 86.4779 315.878 86.8249 319.615 86.9316L350.445 87.7324C370.572 88.2663 385.466 91.9499 395.129 98.7832C404.792 105.563 409.623 117.308 409.623 134.018V135.619C409.623 154.518 401.615 169.332 385.6 180.062C369.584 190.793 346.121 196.158 315.211 196.158C286.223 196.158 263.48 191.594 246.984 182.465C230.542 173.336 222.32 160.417 222.32 143.707V140.584H310.246V141.385C310.246 142.933 310.7 144.241 311.607 145.309C312.568 146.323 313.77 146.83 315.211 146.83C316.759 146.83 317.907 146.403 318.654 145.549C319.402 144.641 319.775 143.574 319.775 142.346V142.186C319.775 139.143 317.854 137.621 314.01 137.621L288.945 137.141C264.014 136.714 246.611 132.763 236.734 125.289C226.911 117.762 222 105.964 222 89.8945V89.4141C222 70.3021 229.714 56.2884 245.143 47.373C260.571 38.4577 283.74 34 314.65 34C343.959 34 366.541 38.1908 382.396 46.5723C398.252 54.9004 406.18 66.7253 406.18 82.0469V83.9688Z" fill="#F8331E"/>
<path fill-rule="evenodd" clip-rule="evenodd" d="M5.1481e-06 108.138C6.61821e-06 91.2956 9.22651 76.6115 22.8933 68.8795V64.0427C22.8933 53.8452 29.7072 44.9186 39.387 41.757C62.7639 34.1218 103.886 18.4755 114.559 0C135.843 9.73537 151.107 22.8069 151.107 46.7541C151.107 54.1628 150.214 61.3532 148.981 67.7512C163.808 75.1192 174 90.4365 174 108.138V149.094C174 159.048 165.943 167.117 156.005 167.117H128.396C122.344 167.117 116.335 166.098 110.621 164.103L95.8875 158.957C90.1324 156.947 83.8676 156.947 78.1126 158.957L63.3793 164.103C57.665 166.098 51.6563 167.117 45.6044 167.117H17.9949C8.05656 167.117 0 159.048 0 149.094L5.1481e-06 108.138ZM56.1109 108.138C44.9303 108.138 35.8667 117.216 35.8667 128.414C35.8667 139.612 44.9303 148.69 56.1109 148.69C67.2915 148.69 76.3551 139.612 76.3551 128.414C76.3551 117.216 67.2915 108.138 56.1109 108.138ZM101.098 128.414C101.098 117.216 110.162 108.138 121.342 108.138C132.523 108.138 141.586 117.216 141.586 128.414C141.586 139.612 132.523 148.69 121.342 148.69C110.162 148.69 101.098 139.612 101.098 128.414Z" fill="#F8331E"/>
<path d="M68.022 189.065C62.8685 184.92 66.8903 177.977 73.4998 177.977H74.1209C75.2173 177.977 76.2624 178.397 77.1489 179.043C80.1177 181.206 83.7726 182.483 87.7251 182.483C91.6717 182.483 95.3298 181.21 98.3044 179.043C99.191 178.397 100.236 177.977 101.332 177.977H101.95C108.56 177.977 112.582 184.92 107.428 189.065C102.034 193.404 95.182 196 87.7251 196C80.2681 196 73.4165 193.404 68.022 189.065Z" fill="#F8331E"/>
</svg>
