<svg width="512" height="512" viewBox="0 0 512 512" fill="none" xmlns="http://www.w3.org/2000/svg">
<path fill-rule="evenodd" clip-rule="evenodd" d="M31 280.636C31 237.395 54.6645 199.695 89.7177 179.843V167.425C89.7177 141.244 107.194 118.325 132.021 110.208C191.979 90.6053 297.45 50.4346 324.826 3C379.415 27.9948 418.564 61.5551 418.564 123.038C418.564 142.059 416.275 160.52 413.113 176.946C451.142 195.863 477.282 235.189 477.282 280.636V385.789C477.282 411.345 456.618 432.062 431.128 432.062L360.314 432.062C344.792 432.062 329.38 429.445 314.724 424.322L276.936 411.111C262.175 405.95 246.107 405.95 231.346 411.111L193.558 424.321C178.901 429.445 163.49 432.062 147.968 432.062H77.1538C51.6638 432.062 31 411.345 31 385.789L31 280.636ZM290.3 332.693C290.3 304.017 313.547 280.636 342.223 280.636C370.899 280.636 394.146 304.017 394.146 332.693C394.146 361.37 370.899 384.75 342.223 384.75C313.547 384.75 290.3 361.37 290.3 332.693ZM174.915 280.636C146.239 280.636 122.992 304.017 122.992 332.693C122.992 361.37 146.239 384.75 174.915 384.75C203.592 384.75 226.838 361.37 226.838 332.693C226.838 304.017 203.592 280.636 174.915 280.636Z" fill="#F8331E"/>
<path d="M205.465 488.412C192.247 477.77 202.562 459.943 219.515 459.943H221.108C223.919 459.943 226.6 461.021 228.874 462.68C236.488 468.235 245.862 471.511 256 471.511C266.123 471.511 275.505 468.245 283.134 462.68C285.408 461.021 288.089 459.943 290.901 459.943H292.485C309.438 459.943 319.753 477.77 306.535 488.412C292.699 499.551 275.126 506.216 256 506.216C236.874 506.216 219.301 499.551 205.465 488.412Z" fill="#F8331E"/>
</svg>
